<svg width="512" height="512" viewBox="0 0 512 512" fill="none" xmlns="http://www.w3.org/2000/svg">
<g opacity="0.1">
<path d="M32 36C34.2091 36 36 34.2091 36 32C36 29.7909 34.2091 28 32 28C29.7909 28 28 29.7909 28 32C28 34.2091 29.7909 36 32 36Z" fill="#171717"/>
<path d="M32 164C34.2091 164 36 162.209 36 160C36 157.791 34.2091 156 32 156C29.7909 156 28 157.791 28 160C28 162.209 29.7909 164 32 164Z" fill="#171717"/>
<path d="M32 292C34.2091 292 36 290.209 36 288C36 285.791 34.2091 284 32 284C29.7909 284 28 285.791 28 288C28 290.209 29.7909 292 32 292Z" fill="#171717"/>
<path d="M32 420C34.2091 420 36 418.209 36 416C36 413.791 34.2091 412 32 412C29.7909 412 28 413.791 28 416C28 418.209 29.7909 420 32 420Z" fill="#171717"/>
<path d="M288 420C290.209 420 292 418.209 292 416C292 413.791 290.209 412 288 412C285.791 412 284 413.791 284 416C284 418.209 285.791 420 288 420Z" fill="#171717"/>
<path d="M288 292C290.209 292 292 290.209 292 288C292 285.791 290.209 284 288 284C285.791 284 284 285.791 284 288C284 290.209 285.791 292 288 292Z" fill="#171717"/>
<path d="M288 164C290.209 164 292 162.209 292 160C292 157.791 290.209 156 288 156C285.791 156 284 157.791 284 160C284 162.209 285.791 164 288 164Z" fill="#171717"/>
<path d="M288 36C290.209 36 292 34.2091 292 32C292 29.7909 290.209 28 288 28C285.791 28 284 29.7909 284 32C284 34.2091 285.791 36 288 36Z" fill="#171717"/>
<path d="M160 36C162.209 36 164 34.2091 164 32C164 29.7909 162.209 28 160 28C157.791 28 156 29.7909 156 32C156 34.2091 157.791 36 160 36Z" fill="#171717"/>
<path d="M160 164C162.209 164 164 162.209 164 160C164 157.791 162.209 156 160 156C157.791 156 156 157.791 156 160C156 162.209 157.791 164 160 164Z" fill="#171717"/>
<path d="M160 292C162.209 292 164 290.209 164 288C164 285.791 162.209 284 160 284C157.791 284 156 285.791 156 288C156 290.209 157.791 292 160 292Z" fill="#171717"/>
<path d="M160 420C162.209 420 164 418.209 164 416C164 413.791 162.209 412 160 412C157.791 412 156 413.791 156 416C156 418.209 157.791 420 160 420Z" fill="#171717"/>
<path d="M416 420C418.209 420 420 418.209 420 416C420 413.791 418.209 412 416 412C413.791 412 412 413.791 412 416C412 418.209 413.791 420 416 420Z" fill="#171717"/>
<path d="M416 292C418.209 292 420 290.209 420 288C420 285.791 418.209 284 416 284C413.791 284 412 285.791 412 288C412 290.209 413.791 292 416 292Z" fill="#171717"/>
<path d="M416 164C418.209 164 420 162.209 420 160C420 157.791 418.209 156 416 156C413.791 156 412 157.791 412 160C412 162.209 413.791 164 416 164Z" fill="#171717"/>
<path d="M416 36C418.209 36 420 34.2091 420 32C420 29.7909 418.209 28 416 28C413.791 28 412 29.7909 412 32C412 34.2091 413.791 36 416 36Z" fill="#171717"/>
<path d="M32 100C34.2091 100 36 98.2091 36 96C36 93.7909 34.2091 92 32 92C29.7909 92 28 93.7909 28 96C28 98.2091 29.7909 100 32 100Z" fill="#171717"/>
<path d="M32 228C34.2091 228 36 226.209 36 224C36 221.791 34.2091 220 32 220C29.7909 220 28 221.791 28 224C28 226.209 29.7909 228 32 228Z" fill="#171717"/>
<path d="M32 356C34.2091 356 36 354.209 36 352C36 349.791 34.2091 348 32 348C29.7909 348 28 349.791 28 352C28 354.209 29.7909 356 32 356Z" fill="#171717"/>
<path d="M32 484C34.2091 484 36 482.209 36 480C36 477.791 34.2091 476 32 476C29.7909 476 28 477.791 28 480C28 482.209 29.7909 484 32 484Z" fill="#171717"/>
<path d="M288 484C290.209 484 292 482.209 292 480C292 477.791 290.209 476 288 476C285.791 476 284 477.791 284 480C284 482.209 285.791 484 288 484Z" fill="#171717"/>
<path d="M288 356C290.209 356 292 354.209 292 352C292 349.791 290.209 348 288 348C285.791 348 284 349.791 284 352C284 354.209 285.791 356 288 356Z" fill="#171717"/>
<path d="M288 228C290.209 228 292 226.209 292 224C292 221.791 290.209 220 288 220C285.791 220 284 221.791 284 224C284 226.209 285.791 228 288 228Z" fill="#171717"/>
<path d="M288 100C290.209 100 292 98.2091 292 96C292 93.7909 290.209 92 288 92C285.791 92 284 93.7909 284 96C284 98.2091 285.791 100 288 100Z" fill="#171717"/>
<path d="M160 100C162.209 100 164 98.2091 164 96C164 93.7909 162.209 92 160 92C157.791 92 156 93.7909 156 96C156 98.2091 157.791 100 160 100Z" fill="#171717"/>
<path d="M160 228C162.209 228 164 226.209 164 224C164 221.791 162.209 220 160 220C157.791 220 156 221.791 156 224C156 226.209 157.791 228 160 228Z" fill="#171717"/>
<path d="M160 356C162.209 356 164 354.209 164 352C164 349.791 162.209 348 160 348C157.791 348 156 349.791 156 352C156 354.209 157.791 356 160 356Z" fill="#171717"/>
<path d="M160 484C162.209 484 164 482.209 164 480C164 477.791 162.209 476 160 476C157.791 476 156 477.791 156 480C156 482.209 157.791 484 160 484Z" fill="#171717"/>
<path d="M416 484C418.209 484 420 482.209 420 480C420 477.791 418.209 476 416 476C413.791 476 412 477.791 412 480C412 482.209 413.791 484 416 484Z" fill="#171717"/>
<path d="M416 356C418.209 356 420 354.209 420 352C420 349.791 418.209 348 416 348C413.791 348 412 349.791 412 352C412 354.209 413.791 356 416 356Z" fill="#171717"/>
<path d="M416 228C418.209 228 420 226.209 420 224C420 221.791 418.209 220 416 220C413.791 220 412 221.791 412 224C412 226.209 413.791 228 416 228Z" fill="#171717"/>
<path d="M416 100C418.209 100 420 98.2091 420 96C420 93.7909 418.209 92 416 92C413.791 92 412 93.7909 412 96C412 98.2091 413.791 100 416 100Z" fill="#171717"/>
<path d="M96 36C98.2091 36 100 34.2091 100 32C100 29.7909 98.2091 28 96 28C93.7909 28 92 29.7909 92 32C92 34.2091 93.7909 36 96 36Z" fill="#171717"/>
<path d="M96 164C98.2091 164 100 162.209 100 160C100 157.791 98.2091 156 96 156C93.7909 156 92 157.791 92 160C92 162.209 93.7909 164 96 164Z" fill="#171717"/>
<path d="M96 292C98.2091 292 100 290.209 100 288C100 285.791 98.2091 284 96 284C93.7909 284 92 285.791 92 288C92 290.209 93.7909 292 96 292Z" fill="#171717"/>
<path d="M96 420C98.2091 420 100 418.209 100 416C100 413.791 98.2091 412 96 412C93.7909 412 92 413.791 92 416C92 418.209 93.7909 420 96 420Z" fill="#171717"/>
<path d="M352 420C354.209 420 356 418.209 356 416C356 413.791 354.209 412 352 412C349.791 412 348 413.791 348 416C348 418.209 349.791 420 352 420Z" fill="#171717"/>
<path d="M352 292C354.209 292 356 290.209 356 288C356 285.791 354.209 284 352 284C349.791 284 348 285.791 348 288C348 290.209 349.791 292 352 292Z" fill="#171717"/>
<path d="M352 164C354.209 164 356 162.209 356 160C356 157.791 354.209 156 352 156C349.791 156 348 157.791 348 160C348 162.209 349.791 164 352 164Z" fill="#171717"/>
<path d="M352 36C354.209 36 356 34.2091 356 32C356 29.7909 354.209 28 352 28C349.791 28 348 29.7909 348 32C348 34.2091 349.791 36 352 36Z" fill="#171717"/>
<path d="M224 36C226.209 36 228 34.2091 228 32C228 29.7909 226.209 28 224 28C221.791 28 220 29.7909 220 32C220 34.2091 221.791 36 224 36Z" fill="#171717"/>
<path d="M224 164C226.209 164 228 162.209 228 160C228 157.791 226.209 156 224 156C221.791 156 220 157.791 220 160C220 162.209 221.791 164 224 164Z" fill="#171717"/>
<path d="M224 292C226.209 292 228 290.209 228 288C228 285.791 226.209 284 224 284C221.791 284 220 285.791 220 288C220 290.209 221.791 292 224 292Z" fill="#171717"/>
<path d="M224 420C226.209 420 228 418.209 228 416C228 413.791 226.209 412 224 412C221.791 412 220 413.791 220 416C220 418.209 221.791 420 224 420Z" fill="#171717"/>
<path d="M480 420C482.209 420 484 418.209 484 416C484 413.791 482.209 412 480 412C477.791 412 476 413.791 476 416C476 418.209 477.791 420 480 420Z" fill="#171717"/>
<path d="M480 292C482.209 292 484 290.209 484 288C484 285.791 482.209 284 480 284C477.791 284 476 285.791 476 288C476 290.209 477.791 292 480 292Z" fill="#171717"/>
<path d="M480 164C482.209 164 484 162.209 484 160C484 157.791 482.209 156 480 156C477.791 156 476 157.791 476 160C476 162.209 477.791 164 480 164Z" fill="#171717"/>
<path d="M480 36C482.209 36 484 34.2091 484 32C484 29.7909 482.209 28 480 28C477.791 28 476 29.7909 476 32C476 34.2091 477.791 36 480 36Z" fill="#171717"/>
<path d="M96 100C98.2091 100 100 98.2091 100 96C100 93.7909 98.2091 92 96 92C93.7909 92 92 93.7909 92 96C92 98.2091 93.7909 100 96 100Z" fill="#171717"/>
<path d="M96 228C98.2091 228 100 226.209 100 224C100 221.791 98.2091 220 96 220C93.7909 220 92 221.791 92 224C92 226.209 93.7909 228 96 228Z" fill="#171717"/>
<path d="M96 356C98.2091 356 100 354.209 100 352C100 349.791 98.2091 348 96 348C93.7909 348 92 349.791 92 352C92 354.209 93.7909 356 96 356Z" fill="#171717"/>
<path d="M96 484C98.2091 484 100 482.209 100 480C100 477.791 98.2091 476 96 476C93.7909 476 92 477.791 92 480C92 482.209 93.7909 484 96 484Z" fill="#171717"/>
<path d="M352 484C354.209 484 356 482.209 356 480C356 477.791 354.209 476 352 476C349.791 476 348 477.791 348 480C348 482.209 349.791 484 352 484Z" fill="#171717"/>
<path d="M352 356C354.209 356 356 354.209 356 352C356 349.791 354.209 348 352 348C349.791 348 348 349.791 348 352C348 354.209 349.791 356 352 356Z" fill="#171717"/>
<path d="M352 228C354.209 228 356 226.209 356 224C356 221.791 354.209 220 352 220C349.791 220 348 221.791 348 224C348 226.209 349.791 228 352 228Z" fill="#171717"/>
<path d="M352 100C354.209 100 356 98.2091 356 96C356 93.7909 354.209 92 352 92C349.791 92 348 93.7909 348 96C348 98.2091 349.791 100 352 100Z" fill="#171717"/>
<path d="M224 100C226.209 100 228 98.2091 228 96C228 93.7909 226.209 92 224 92C221.791 92 220 93.7909 220 96C220 98.2091 221.791 100 224 100Z" fill="#171717"/>
<path d="M224 228C226.209 228 228 226.209 228 224C228 221.791 226.209 220 224 220C221.791 220 220 221.791 220 224C220 226.209 221.791 228 224 228Z" fill="#171717"/>
<path d="M224 356C226.209 356 228 354.209 228 352C228 349.791 226.209 348 224 348C221.791 348 220 349.791 220 352C220 354.209 221.791 356 224 356Z" fill="#171717"/>
<path d="M224 484C226.209 484 228 482.209 228 480C228 477.791 226.209 476 224 476C221.791 476 220 477.791 220 480C220 482.209 221.791 484 224 484Z" fill="#171717"/>
<path d="M480 484C482.209 484 484 482.209 484 480C484 477.791 482.209 476 480 476C477.791 476 476 477.791 476 480C476 482.209 477.791 484 480 484Z" fill="#171717"/>
<path d="M480 356C482.209 356 484 354.209 484 352C484 349.791 482.209 348 480 348C477.791 348 476 349.791 476 352C476 354.209 477.791 356 480 356Z" fill="#171717"/>
<path d="M480 228C482.209 228 484 226.209 484 224C484 221.791 482.209 220 480 220C477.791 220 476 221.791 476 224C476 226.209 477.791 228 480 228Z" fill="#171717"/>
<path d="M480 100C482.209 100 484 98.2091 484 96C484 93.7909 482.209 92 480 92C477.791 92 476 93.7909 476 96C476 98.2091 477.791 100 480 100Z" fill="#171717"/>
</g>
</svg>
